<svg width="103" height="32" viewBox="0 0 103 32" fill="none" xmlns="http://www.w3.org/2000/svg">
<g clip-path="url(#clip0_1_1156)">
<path fill-rule="evenodd" clip-rule="evenodd" d="M63.8992 25.025C57.9137 29.5733 49.2381 32 41.7685 32C31.295 32 21.8662 28.0064 14.7329 21.3642C14.1724 20.8418 14.6746 20.13 15.3471 20.5368C23.0453 25.1544 32.5638 27.9324 42.3962 27.9324C49.0273 27.9324 56.322 26.518 63.0294 23.5828C64.0426 23.1391 64.89 24.2669 63.8992 25.025Z" fill="#FF9900"/>
<path fill-rule="evenodd" clip-rule="evenodd" d="M66.3878 22.0899C65.6256 21.0822 61.3304 21.6138 59.4025 21.8495C58.8152 21.9235 58.7255 21.3965 59.2545 21.0175C62.6755 18.5353 68.2888 19.2518 68.9434 20.0838C69.598 20.9204 68.773 26.7214 65.5584 29.4901C65.0652 29.9154 64.5944 29.6889 64.8141 29.125C65.5359 27.2668 67.1545 23.1021 66.3878 22.0899Z" fill="#FF9900"/>
<path fill-rule="evenodd" clip-rule="evenodd" d="M59.5369 3.49446V1.08163C59.5369 0.716475 59.8059 0.471495 60.1287 0.471495H70.6067C70.943 0.471495 71.212 0.721098 71.212 1.08163V3.14779C71.2075 3.49446 70.925 3.94744 70.4229 4.66389L64.9933 12.6558C67.0109 12.605 69.1406 12.9146 70.9699 13.9778C71.3823 14.2181 71.4944 14.5694 71.5258 14.9161V17.4907C71.5258 17.842 71.1492 18.2534 70.7546 18.0407C67.531 16.2981 63.2492 16.1086 59.6848 18.0592C59.3216 18.2626 58.9406 17.8559 58.9406 17.5046V15.0594C58.9406 14.6665 58.945 13.9963 59.3261 13.4L65.6165 4.09998H60.1421C59.8059 4.09998 59.5369 3.855 59.5369 3.49446Z" fill="black"/>
<path fill-rule="evenodd" clip-rule="evenodd" d="M21.3147 18.5492H18.1269C17.822 18.5261 17.5799 18.2903 17.5575 17.9899V1.12324C17.5575 0.785812 17.831 0.517718 18.1717 0.517718H21.1443C21.4537 0.531575 21.7003 0.776564 21.7227 1.08163V3.28646H21.781C22.5566 1.15559 24.0138 0.161802 25.9776 0.161802C27.9727 0.161802 29.2191 1.15559 30.1158 3.28646C30.887 1.15559 32.6401 0.161802 34.5187 0.161802C35.8548 0.161802 37.3164 0.730341 38.2086 2.00609C39.2174 3.42512 39.0112 5.48665 39.0112 7.29396L39.0067 17.939C39.0067 18.2765 38.7332 18.5492 38.3924 18.5492H35.2091C34.8908 18.5261 34.6352 18.2626 34.6352 17.939V8.99958C34.6352 8.28775 34.698 6.5128 34.5456 5.83795C34.3079 4.70549 33.5951 4.38655 32.6715 4.38655C31.9003 4.38655 31.0933 4.91812 30.766 5.76862C30.4387 6.61911 30.47 8.04277 30.47 8.99958V17.939C30.47 18.2765 30.1966 18.5492 29.8558 18.5492H26.6725C26.3497 18.5261 26.0986 18.2626 26.0986 17.939L26.0941 8.99958C26.0941 7.11832 26.3945 4.34958 24.1303 4.34958C21.8393 4.34958 21.9289 7.04898 21.9289 8.99958V17.939C21.9289 18.2765 21.6554 18.5492 21.3147 18.5492" fill="black"/>
<path fill-rule="evenodd" clip-rule="evenodd" d="M80.2326 0.161802C84.9627 0.161802 87.5228 4.34958 87.5228 9.67444C87.5228 14.819 84.6937 18.9005 80.2326 18.9005C75.5877 18.9005 73.059 14.7127 73.059 9.49417C73.059 4.24327 75.6191 0.161802 80.2326 0.161802ZM80.2595 3.6054C77.9101 3.6054 77.7622 6.90569 77.7622 8.96261C77.7622 11.0241 77.7308 15.4245 80.2326 15.4245C82.703 15.4245 82.8196 11.8746 82.8196 9.71141C82.8196 8.28775 82.7613 6.58676 82.3444 5.23705C81.9857 4.063 81.2728 3.6054 80.2595 3.6054Z" fill="black"/>
<path fill-rule="evenodd" clip-rule="evenodd" d="M93.6564 18.5492H90.482C90.1637 18.5261 89.9081 18.2626 89.9081 17.939L89.9037 1.06777C89.9306 0.758075 90.1951 0.517718 90.5179 0.517718H93.4725C93.7505 0.531575 93.9792 0.72572 94.0419 0.98919V3.56841H94.1002C94.9925 1.2619 96.2434 0.161802 98.4448 0.161802C99.875 0.161802 101.269 0.693364 102.166 2.14938C103 3.49908 103 5.76861 103 7.40027V18.0176C102.964 18.3134 102.7 18.5492 102.386 18.5492H99.189C98.8976 18.5261 98.6555 18.3042 98.6241 18.0176V8.85629C98.6241 7.012 98.8303 4.3126 96.6289 4.3126C95.8533 4.3126 95.1404 4.84878 94.7862 5.6623C94.3379 6.69307 94.2796 7.71921 94.2796 8.85629V17.939C94.2751 18.2765 93.9971 18.5492 93.6564 18.5492" fill="black"/>
<path fill-rule="evenodd" clip-rule="evenodd" d="M51.184 10.4926C51.184 11.7729 51.2154 12.8407 50.5877 13.9778C50.0811 14.9022 49.274 15.4708 48.3818 15.4708C47.1578 15.4708 46.4404 14.5093 46.4404 13.0903C46.4404 10.2892 48.875 9.78074 51.184 9.78074V10.4926ZM54.3987 18.503C54.188 18.6971 53.8831 18.711 53.6455 18.5815C52.5873 17.6756 52.3946 17.255 51.8162 16.3906C50.0676 18.2303 48.8257 18.7803 46.5615 18.7803C43.8759 18.7803 41.791 17.0747 41.791 13.6588C41.791 10.9918 43.1899 9.17523 45.1895 8.28775C46.9202 7.50196 49.3368 7.3633 51.184 7.14605V6.7208C51.184 5.93963 51.2423 5.01518 50.7939 4.34033C50.4084 3.73481 49.6641 3.48521 49.005 3.48521C47.79 3.48521 46.7094 4.1277 46.4449 5.45892C46.3911 5.75475 46.1804 6.04595 45.889 6.05981L42.7998 5.71776C42.5398 5.65768 42.2483 5.44043 42.3246 5.02905C43.033 1.16483 46.4225 1.71661e-05 49.4534 1.71661e-05C51.0047 1.71661e-05 53.0312 0.425267 54.2552 1.6363C55.8065 3.12929 55.6586 5.12149 55.6586 7.28934V12.4108C55.6586 13.95 56.2773 14.6249 56.8601 15.4569C57.0619 15.7527 57.1067 16.1086 56.8467 16.3305C56.1966 16.8898 55.0398 17.9298 54.4032 18.5122L54.3987 18.503" fill="black"/>
<path fill-rule="evenodd" clip-rule="evenodd" d="M9.39298 10.4928C9.39298 11.7731 9.42437 12.8409 8.79667 13.978C8.29003 14.9024 7.48748 15.471 6.59078 15.471C5.36678 15.471 4.6539 14.5095 4.6539 13.0905C4.6539 10.2894 7.08845 9.78094 9.39298 9.78094V10.4928ZM12.6077 18.5032C12.3969 18.6973 12.0921 18.7112 11.8544 18.5817C10.7963 17.6758 10.608 17.2552 10.0252 16.3908C8.27658 18.2304 7.03913 18.7805 4.77047 18.7805C2.08932 18.7805 0 17.0749 0 13.659C0 10.992 1.40334 9.17542 3.39851 8.28795C5.12915 7.50216 7.54577 7.36349 9.39298 7.14625V6.721C9.39298 5.93983 9.45127 5.01538 9.0074 4.34053C8.61733 3.73501 7.87307 3.48541 7.21847 3.48541C6.00344 3.48541 4.91843 4.1279 4.6539 5.45912C4.60009 5.75494 4.38937 6.04615 4.10242 6.06001L1.00879 5.71796C0.748748 5.65788 0.461802 5.44063 0.533539 5.02925C1.24642 1.16503 4.63148 0.000217438 7.66234 0.000217438C9.21364 0.000217438 11.2402 0.425467 12.4642 1.6365C14.0155 3.12949 13.8675 5.12169 13.8675 7.28954V12.411C13.8675 13.9502 14.4863 14.6251 15.0691 15.4571C15.2754 15.7529 15.3202 16.1088 15.0602 16.3307C14.41 16.89 13.2533 17.93 12.6166 18.5124L12.6077 18.5031" fill="black"/>
</g>
<defs>
<clipPath id="clip0_1_1156">
<rect width="103" height="32" fill="white"/>
</clipPath>
</defs>
</svg>
