<svg width="123" height="37" viewBox="0 0 123 37" fill="none" xmlns="http://www.w3.org/2000/svg">
<path fill-rule="evenodd" clip-rule="evenodd" d="M77.1999 11.31L75.1999 7.93L71.6499 9.62L69.6499 6.23L66.0999 7.93L64.1099 4.53L60.5599 6.23L58.5599 2.84L55.0099 4.54L53.0199 1.14L49.4599 2.84L41.9299 27.36L51.0799 30.16C51.4246 29.0548 52.1532 28.1094 53.1341 27.4945C54.1151 26.8797 55.2835 26.636 56.4285 26.8075C57.5734 26.979 58.6192 27.5543 59.3769 28.4296C60.1346 29.3049 60.5542 30.4223 60.5599 31.58V31.68C60.5799 32.12 60.5299 32.56 60.3999 33L69.6999 35.85L77.1999 11.31Z" fill="#D61920"/>
<path fill-rule="evenodd" clip-rule="evenodd" d="M49.7799 25.34C49.5486 25.3017 49.3387 25.1818 49.1882 25.002C49.0378 24.8222 48.9568 24.5944 48.9599 24.36V12.36C48.9586 12.2283 48.9835 12.0977 49.0333 11.9757C49.0831 11.8538 49.1567 11.743 49.2498 11.6499C49.343 11.5568 49.4537 11.4832 49.5757 11.4334C49.6976 11.3836 49.8282 11.3587 49.9599 11.36H58.6299C59.1408 11.3587 59.6469 11.458 60.1193 11.6523C60.5918 11.8466 61.0214 12.132 61.3835 12.4923C61.7457 12.8526 62.0333 13.2807 62.23 13.7521C62.4267 14.2236 62.5286 14.7292 62.5299 15.24V24.36C62.5297 24.5073 62.4969 24.6527 62.4339 24.7858C62.3709 24.9189 62.2793 25.0365 62.1656 25.1301C62.052 25.2238 61.919 25.2911 61.7762 25.3274C61.6335 25.3637 61.4845 25.368 61.3399 25.34C61.1105 25.2996 60.9029 25.1788 60.7544 24.9992C60.606 24.8196 60.5264 24.593 60.5299 24.36V15.25C60.5299 14.7461 60.3298 14.2628 59.9734 13.9065C59.6171 13.5502 59.1338 13.35 58.6299 13.35H56.7399V24.35C56.7407 24.484 56.7146 24.6168 56.663 24.7405C56.6115 24.8641 56.5356 24.9762 56.4399 25.07C56.3261 25.1829 56.1865 25.2665 56.0332 25.3135C55.8799 25.3605 55.7175 25.3696 55.5599 25.34C55.3286 25.3017 55.1187 25.1818 54.9682 25.002C54.8178 24.8222 54.7368 24.5944 54.7399 24.36V13.35H50.9599V24.35C50.9609 24.4971 50.9293 24.6426 50.8676 24.7761C50.8058 24.9096 50.7154 25.0279 50.6027 25.1224C50.49 25.217 50.3578 25.2855 50.2156 25.3231C50.0734 25.3607 49.9246 25.3665 49.7799 25.34ZM64.1999 30.57C63.9669 30.5315 63.7556 30.4101 63.6049 30.2282C63.4543 30.0463 63.3744 29.8161 63.3799 29.58C63.381 29.3177 63.4852 29.0663 63.6699 28.88C63.8546 28.6916 64.1062 28.5838 64.3699 28.58C65.2199 28.58 65.9499 28.04 66.1899 27.23L67.2199 23.8L63.8499 12.53C63.8097 12.404 63.795 12.2712 63.8064 12.1394C63.8179 12.0076 63.8554 11.8794 63.9168 11.7622C63.9782 11.645 64.0622 11.5411 64.1641 11.4567C64.2659 11.3722 64.3834 11.3087 64.5099 11.27C64.7618 11.2002 65.0309 11.2297 65.2616 11.3525C65.4924 11.4753 65.6672 11.6821 65.7499 11.93L68.2499 20.33L70.7899 11.93C70.9099 11.47 71.4199 11.16 71.9399 11.26L72.0099 11.27C72.5499 11.44 72.8499 12.01 72.6899 12.54L69.2199 24.1L68.1199 27.8C67.8731 28.5963 67.3836 29.2955 66.7199 29.8C66.0449 30.3063 65.2238 30.58 64.3799 30.58C64.3197 30.5823 64.2595 30.579 64.1999 30.57Z" fill="#FEFEFE"/>
<path fill-rule="evenodd" clip-rule="evenodd" d="M3.07998 23.15H5.03998C5.56245 23.15 6.06353 22.9424 6.43298 22.573C6.80242 22.2036 7.00998 21.7025 7.00998 21.18V15.41C7.01129 15.1513 6.96164 14.8949 6.86385 14.6553C6.76607 14.4158 6.62206 14.1979 6.44006 14.0141C6.25805 13.8302 6.04162 13.684 5.80311 13.5838C5.5646 13.4836 5.30868 13.4313 5.04998 13.43H3.07998V23.13V23.15ZM1.84998 25.21C1.60987 25.1694 1.39219 25.0443 1.23629 24.8572C1.0804 24.6702 0.996576 24.4335 0.999978 24.19V6.27C0.99821 6.1329 1.02384 5.99682 1.07535 5.86975C1.12687 5.74268 1.20323 5.62717 1.29998 5.53C1.41702 5.40846 1.56213 5.31754 1.72255 5.26523C1.88297 5.21292 2.05379 5.20082 2.21998 5.23C2.71998 5.33 3.07998 5.75 3.07998 6.26V11.36H5.03998C5.57136 11.3587 6.09778 11.4622 6.58909 11.6647C7.0804 11.8671 7.52695 12.1645 7.90316 12.5397C8.27936 12.915 8.57784 13.3608 8.7815 13.8516C8.98515 14.3425 9.08998 14.8686 9.08998 15.4V21.17C9.08734 22.2407 8.66085 23.2667 7.90377 24.0238C7.1467 24.7809 6.12064 25.2074 5.04998 25.21H2.03998C1.97315 25.214 1.90608 25.2106 1.83998 25.2L1.84998 25.21Z" fill="#333545"/>
<path fill-rule="evenodd" clip-rule="evenodd" d="M16.14 13.35C16.0277 13.3304 15.914 13.3203 15.8 13.32C15.5406 13.3173 15.2832 13.3665 15.043 13.4645C14.8028 13.5626 14.5845 13.7076 14.4011 13.891C14.2176 14.0745 14.0726 14.2927 13.9745 14.533C13.8765 14.7732 13.8273 15.0306 13.83 15.29V21.3C13.8287 21.5591 13.8787 21.8158 13.9773 22.0555C14.0758 22.2951 14.2209 22.5128 14.4041 22.696C14.5873 22.8791 14.805 23.0242 15.0446 23.1227C15.2842 23.2213 15.5409 23.2713 15.8 23.27C16.3225 23.27 16.8236 23.0624 17.193 22.693C17.5625 22.3236 17.77 21.8225 17.77 21.3V15.3C17.77 14.33 17.08 13.52 16.14 13.35ZM15.09 25.3C14.1524 25.1351 13.3032 24.6443 12.6921 23.9143C12.0811 23.1843 11.7474 22.262 11.75 21.31V15.3C11.7483 14.7681 11.8526 14.2412 12.0569 13.7501C12.2613 13.259 12.5615 12.8137 12.94 12.44C13.3155 12.0646 13.7615 11.7671 14.2523 11.5646C14.7431 11.3621 15.2691 11.2586 15.8 11.26C16.8715 11.26 17.8991 11.6856 18.6567 12.4433C19.4144 13.2009 19.84 14.2285 19.84 15.3V21.31C19.84 22.39 19.42 23.41 18.65 24.18C18.2761 24.5546 17.8318 24.8517 17.3427 25.0542C16.8536 25.2567 16.3294 25.3606 15.8 25.36C15.562 25.361 15.3245 25.3409 15.09 25.3ZM26.89 13.36C26.7778 13.3403 26.664 13.3303 26.55 13.33C26.2906 13.3273 26.0332 13.3765 25.793 13.4745C25.5528 13.5726 25.3345 13.7176 25.1511 13.901C24.9676 14.0845 24.8226 14.3027 24.7245 14.543C24.6265 14.7832 24.5773 15.0406 24.58 15.3V21.31C24.5787 21.5691 24.6287 21.8258 24.7273 22.0654C24.8258 22.3051 24.9709 22.5228 25.1541 22.706C25.3373 22.8891 25.555 23.0342 25.7946 23.1327C26.0342 23.2313 26.2909 23.2813 26.55 23.28C26.8091 23.2813 27.0659 23.2313 27.3055 23.1327C27.5451 23.0342 27.7628 22.8891 27.946 22.706C28.1292 22.5228 28.2742 22.3051 28.3728 22.0654C28.4713 21.8258 28.5213 21.5691 28.52 21.31V15.3C28.52 14.34 27.83 13.53 26.89 13.36ZM25.84 25.3C24.9043 25.1329 24.0574 24.6413 23.4483 23.9115C22.8392 23.1817 22.507 22.2605 22.51 21.31V15.3C22.5116 14.7106 22.6418 14.1287 22.8915 13.5949C23.1412 13.0611 23.5043 12.5881 23.9557 12.2092C24.407 11.8302 24.9357 11.5543 25.5046 11.4007C26.0736 11.2471 26.6693 11.2196 27.25 11.32C28.1878 11.4825 29.038 11.9709 29.6509 12.699C30.2637 13.4272 30.5999 14.3483 30.6 15.3V21.31C30.6012 21.8442 30.4957 22.3733 30.2897 22.8661C30.0836 23.359 29.7811 23.8057 29.4 24.18C29.0261 24.5546 28.5818 24.8517 28.0927 25.0542C27.6036 25.2567 27.0794 25.3606 26.55 25.36C26.31 25.36 26.07 25.34 25.84 25.3ZM34.11 25.34C33.8699 25.2994 33.6522 25.1743 33.4963 24.9872C33.3404 24.8002 33.2566 24.5635 33.26 24.32V6.27C33.26 5.99 33.36 5.72 33.56 5.53C33.678 5.41355 33.8223 5.32729 33.9807 5.27854C34.1392 5.2298 34.307 5.22 34.47 5.25C34.97 5.33 35.34 5.76 35.34 6.27V16.95L40.12 11.59C40.36 11.33 40.72 11.21 41.08 11.27C41.2615 11.3004 41.4316 11.3788 41.5725 11.4972C41.7134 11.6156 41.8201 11.7695 41.8813 11.9431C41.9426 12.1166 41.9562 12.3034 41.9208 12.484C41.8854 12.6646 41.8023 12.8324 41.68 12.97L38.07 17L41.8 23.83C41.8672 23.9452 41.9106 24.0727 41.9278 24.2049C41.945 24.3371 41.9355 24.4715 41.9 24.6C41.8614 24.7325 41.7962 24.8557 41.7086 24.9623C41.6209 25.0689 41.5125 25.1565 41.39 25.22C41.1783 25.3417 40.9302 25.3843 40.69 25.34C40.5406 25.3147 40.3986 25.2568 40.2742 25.1704C40.1497 25.084 40.0459 24.9712 39.97 24.84L36.61 18.66L35.33 20.07V24.32C35.33 24.5958 35.2204 24.8604 35.0254 25.0554C34.8304 25.2504 34.5658 25.36 34.29 25.36C34.22 25.36 34.16 25.36 34.09 25.34H34.11ZM79.92 25.33C79.3577 25.2358 78.8234 25.0173 78.3563 24.6903C77.8892 24.3633 77.501 23.9361 77.22 23.44C77.0826 23.1969 77.0467 22.9094 77.12 22.64C77.2 22.38 77.37 22.16 77.6 22.02C77.8136 21.9033 78.061 21.8644 78.3 21.91C78.6 21.96 78.87 22.14 79.02 22.41C79.29 22.87 79.72 23.17 80.25 23.26C80.5233 23.3075 80.8037 23.2925 81.0704 23.2163C81.3371 23.1402 81.5831 23.0047 81.79 22.82C82.19 22.45 82.39 21.92 82.34 21.4C82.3289 21.1335 82.2552 20.8733 82.1249 20.6405C81.9947 20.4077 81.8114 20.2088 81.59 20.06L78.79 18.07C78.3338 17.7497 77.9539 17.3326 77.6774 16.8487C77.4008 16.3647 77.2344 15.8257 77.19 15.27C77.1538 14.7094 77.2458 14.1479 77.4589 13.6281C77.672 13.1083 78.0007 12.6439 78.42 12.27C78.8291 11.8897 79.3178 11.6053 79.8506 11.4375C80.3834 11.2697 80.9468 11.2228 81.5 11.3C82.68 11.5 83.64 12.18 84.19 13.14C84.3225 13.3799 84.357 13.6618 84.2861 13.9266C84.2153 14.1913 84.0446 14.4183 83.81 14.56C83.5983 14.6817 83.3502 14.7243 83.11 14.68C82.9606 14.6547 82.8186 14.5968 82.6942 14.5104C82.5697 14.424 82.4659 14.3112 82.39 14.18C82.2646 13.9678 82.0937 13.7861 81.8897 13.6478C81.6857 13.5094 81.4536 13.418 81.21 13.38C80.9609 13.3349 80.7046 13.3485 80.4616 13.4196C80.2186 13.4908 79.9955 13.6176 79.81 13.79C79.6289 13.9609 79.4876 14.1695 79.396 14.4011C79.3044 14.6326 79.2648 14.8815 79.28 15.13C79.3 15.62 79.58 16.1 80 16.38L82.8 18.33C83.2753 18.6628 83.6684 19.0997 83.9491 19.6075C84.2299 20.1153 84.3909 20.6805 84.42 21.26C84.4663 21.8368 84.3775 22.4164 84.1605 22.9528C83.9435 23.4893 83.6043 23.9676 83.17 24.35C82.7476 24.7425 82.243 25.0359 81.6929 25.2089C81.1428 25.3819 80.5611 25.4301 79.99 25.35L79.91 25.33H79.92ZM87.95 25.36C87.7098 25.3178 87.4921 25.1925 87.3349 25.0061C87.1777 24.8196 87.091 24.5839 87.09 24.34V6.29C87.0887 6.15305 87.1147 6.01721 87.1665 5.89043C87.2183 5.76365 87.2948 5.64847 87.3917 5.55163C87.4885 5.45479 87.6037 5.37823 87.7305 5.32644C87.8572 5.27465 87.9931 5.24866 88.13 5.25L88.33 5.26C88.83 5.36 89.17 5.77 89.17 6.29V11.39H91.14C91.6709 11.3887 92.1969 11.4923 92.6876 11.6948C93.1784 11.8974 93.6243 12.1949 93.9997 12.5703C94.3751 12.9458 94.6726 13.3916 94.8752 13.8824C95.0777 14.3731 95.1813 14.8991 95.18 15.43V24.33C95.1809 24.481 95.1485 24.6303 95.0853 24.7674C95.022 24.9045 94.9294 25.026 94.8139 25.1234C94.6985 25.2207 94.563 25.2914 94.4172 25.3306C94.2714 25.3698 94.1187 25.3764 93.97 25.35C93.47 25.26 93.11 24.83 93.11 24.32V15.42C93.11 15.1618 93.059 14.9061 92.9599 14.6676C92.8608 14.4292 92.7155 14.2127 92.5324 14.0305C92.3494 13.8484 92.1321 13.7042 91.8932 13.6063C91.6542 13.5084 91.3983 13.4587 91.14 13.46H89.17V24.33C89.1712 24.482 89.1386 24.6324 89.0748 24.7703C89.0109 24.9083 88.9173 25.0304 88.8007 25.1279C88.6841 25.2254 88.5473 25.2959 88.4003 25.3343C88.2532 25.3727 88.0994 25.378 87.95 25.35V25.36ZM102.23 13.37C101.947 13.3186 101.655 13.3302 101.377 13.4041C101.099 13.478 100.84 13.6124 100.619 13.7976C100.399 13.9828 100.222 14.2144 100.101 14.4758C99.9801 14.7372 99.9183 15.022 99.92 15.31V21.32C99.9187 21.5782 99.9684 21.8342 100.066 22.0731C100.164 22.3121 100.308 22.5293 100.491 22.7124C100.673 22.8955 100.889 23.0407 101.128 23.1399C101.366 23.239 101.622 23.29 101.88 23.29C102.4 23.29 102.9 23.09 103.27 22.72C103.455 22.5372 103.602 22.3191 103.702 22.0786C103.801 21.8382 103.852 21.5803 103.85 21.32V15.3C103.85 14.34 103.17 13.52 102.22 13.36L102.23 13.37ZM101.17 25.29C100.235 25.1251 99.3884 24.6354 98.7792 23.9073C98.17 23.1792 97.8374 22.2594 97.84 21.31V15.3C97.8401 14.7098 97.9692 14.1268 98.2183 13.5917C98.4674 13.0566 98.8304 12.5825 99.2819 12.2024C99.7334 11.8223 100.263 11.5455 100.832 11.3914C101.402 11.2372 101.998 11.2094 102.58 11.31C103.519 11.4728 104.371 11.9627 104.984 12.6929C105.597 13.4231 105.932 14.3466 105.93 15.3V21.31C105.93 21.8426 105.825 22.3699 105.619 22.861C105.412 23.3522 105.11 23.7972 104.73 24.17C104.271 24.6306 103.708 24.9731 103.088 25.1682C102.468 25.3632 101.81 25.405 101.17 25.29Z" fill="#333545"/>
<path fill-rule="evenodd" clip-rule="evenodd" d="M121.9 12.54C121.934 12.413 121.943 12.2804 121.926 12.15C121.909 12.0196 121.866 11.8939 121.8 11.78C121.724 11.6586 121.625 11.5536 121.509 11.4712C121.392 11.3887 121.26 11.3305 121.12 11.3C120.862 11.2513 120.595 11.3028 120.374 11.444C120.153 11.5852 119.994 11.8056 119.93 12.06C119.93 12.11 118.81 16.62 117.93 20.05L117.91 20.12L117.89 20.05L115.89 12.07C115.852 11.8752 115.754 11.6969 115.611 11.5592C115.468 11.4215 115.286 11.331 115.09 11.3C115.031 11.2883 114.97 11.2816 114.91 11.28C114.45 11.28 114.05 11.6 113.92 12.06C113.91 12.11 112.79 16.62 111.92 20.05L111.9 20.12L111.88 20.05C111.03 16.62 109.88 12.11 109.88 12.06C109.833 11.8686 109.731 11.695 109.588 11.5601C109.444 11.4252 109.264 11.3349 109.07 11.3C108.904 11.2706 108.732 11.283 108.572 11.3361C108.411 11.3893 108.267 11.4815 108.151 11.6044C108.035 11.7274 107.951 11.8773 107.907 12.0406C107.863 12.2039 107.861 12.3755 107.9 12.54L110.91 24.57C110.967 24.7905 111.095 24.9861 111.273 25.127C111.452 25.268 111.672 25.3463 111.9 25.35C112.39 25.35 112.78 25.03 112.88 24.57L114.88 16.58L114.91 16.51L114.93 16.58C115.81 20.05 116.93 24.58 116.93 24.58C116.99 24.7962 117.117 24.9876 117.293 25.1261C117.47 25.2647 117.686 25.3431 117.91 25.35C118.14 25.3572 118.366 25.2829 118.547 25.1403C118.728 24.9976 118.853 24.7957 118.9 24.57L121.9 12.54Z" fill="#333545"/>
</svg>
