<svg width="98" height="34" viewBox="0 0 98 34" fill="none" xmlns="http://www.w3.org/2000/svg">
<g clip-path="url(#clip0_1_1148)">
<path fill-rule="evenodd" clip-rule="evenodd" d="M86.3761 15.8409L80.1389 26.6752L74.8174 26.6965L86.3761 6.3039L97.8916 26.6965H92.4858L86.3761 15.8398V15.8409ZM69.5812 21.98H75.5413L72.7741 26.6965H65.0058L65.0268 20.9536V6.42927H69.6033L69.5823 21.98H69.5812ZM53.2352 6.43034C58.9182 6.45159 63.5157 10.9778 63.4947 16.573C63.4736 22.1479 58.876 26.6752 53.192 26.6752C47.5301 26.654 42.9326 22.1277 42.9326 16.5315C42.9537 10.9566 47.5512 6.43034 53.2352 6.43034ZM53.2141 21.9598C56.2574 21.9598 58.7043 19.549 58.7043 16.573C58.7264 13.598 56.2574 11.1659 53.2352 11.1659C50.212 11.1446 47.743 13.5767 47.743 16.5528C47.7219 19.5278 50.1909 21.9598 53.2131 21.9598H53.2141ZM34.4614 14.9633C34.3981 14.1239 34.1842 13.0136 33.8649 11.9458C33.2079 9.74015 32.0657 7.71247 30.5235 6.01384C29.7142 5.13409 28.7995 4.31596 27.4359 3.35227C26.3965 2.83505 25.3745 2.28295 24.3716 1.6969C23.7119 1.31971 22.9237 0.857524 21.8815 0.522836C20.6458 0.228738 19.3827 0.0674012 18.1133 0.0415239C16.8804 -0.000976108 15.6443 0.105274 14.4525 0.334774C13.1964 0.544086 12.1532 0.878774 10.7696 1.21452C7.63993 2.57665 5.21417 4.63046 3.12772 7.35577C-4.15168 17.6036 2.42591 31.9601 14.58 33.6569C16.5811 33.93 18.5822 33.8248 20.4758 33.3849L21.8173 33.029C21.8594 33.0077 21.9237 32.9865 21.9658 32.9865L23.4991 32.4C23.5834 32.3575 23.6477 32.3362 23.733 32.2948L24.3716 32.0015C25.5968 31.3918 26.747 30.6394 27.7984 29.7596C26.8413 30.6365 25.8004 31.4156 24.6909 32.0855L24.7541 32.128C24.968 32.0642 25.1587 32.0015 25.3716 31.9601C25.3716 31.9601 25.3716 32.2948 25.3295 32.2321C24.9891 32.4839 25.5212 32.2533 26.202 31.8963C26.8838 31.5404 27.5434 31.0995 28.1388 30.5969C29.0124 29.8638 29.7784 29.0669 30.8638 27.7685C31.9703 25.8188 33.3549 24.121 33.9935 21.8366C34.2064 21.2288 34.3971 20.517 34.5257 19.7828C34.6521 19.0497 34.7385 18.2953 34.7385 17.5196C34.7174 16.744 34.6321 15.9471 34.4614 14.9633ZM18.7097 32.1907C22.4348 31.6031 25.5634 29.5291 28.1177 26.6996C28.8206 25.6722 29.3738 24.7287 30.0545 23.7023C30.906 21.606 30.8427 19.7413 31.1188 18.4217C31.4603 16.0311 30.651 14.1037 29.9702 12.0499C28.927 9.66034 27.5434 7.87959 25.1166 6.49621C18.9858 2.68184 10.6421 3.74965 6.66204 9.45102C6.64096 9.45102 6.53348 9.59765 6.32062 9.8909C6.59776 8.7179 7.30062 8.02621 8.00243 7.35471C10.0889 5.63665 12.5157 4.27346 15.2829 3.60409C18.4126 3.26834 21.5191 3.60409 24.3073 4.96621C28.4802 7.35471 31.2474 11.1075 31.9492 15.5487V19.6574C31.0767 26.3852 25.3295 31.499 18.7097 32.1907ZM34.0146 16.8906C33.8649 7.04127 24.1377 0.397461 14.6654 1.7394C11.8982 2.43002 8.87494 3.8134 6.72527 5.74184C5.68204 6.43246 5.19309 7.71171 4.14987 8.73809C-0.0230351 14.8793 0.701954 22.7386 5.8949 27.5178C6.56102 28.1818 7.27228 28.7981 8.0235 29.3623C3.682 26.7411 1.72305 22.779 1.04232 17.9606C1.04232 16.2415 1.38269 14.5436 1.74413 12.8255C4.172 5.3009 11.8128 -0.168851 20.1365 1.21452C21.5201 1.55027 22.9037 1.90621 24.3094 2.24196C26.0544 2.93259 27.7784 3.96002 29.162 5.32321C30.5456 6.68427 31.5888 8.4034 32.632 10.1002C33.3338 11.4634 33.6753 13.1815 34.0156 14.5436C34.0789 15.3192 34.0789 16.1161 34.0156 16.8917L34.0146 16.8906Z" fill="black"/>
<path fill-rule="evenodd" clip-rule="evenodd" d="M25.3725 17.0383C25.3725 21.2723 21.8393 24.7095 17.4756 24.7095C13.1131 24.7095 9.57874 21.2723 9.57874 17.0383C9.57874 12.8053 13.112 9.36806 17.4756 9.36806C21.8393 9.36806 25.3725 12.8053 25.3725 17.0393V17.0383Z" fill="white"/>
<path fill-rule="evenodd" clip-rule="evenodd" d="M25.4157 15.7388C25.3093 15.1523 25.1386 14.6912 24.9689 14.042C24.2871 12.6161 23.2871 11.5058 21.9667 10.5623C17.0288 7.27282 10.2384 10.4369 9.51548 16.0544C9.23939 18.2761 10.0266 20.4138 11.4312 22.049C11.0055 21.6081 10.5376 21.148 10.2183 20.6231L10.1762 20.6656C10.2183 20.791 10.389 20.8749 10.4312 21.0003C10.4312 21.0003 10.2605 21.0003 10.3037 20.9791C10.1762 20.8335 10.2826 21.0641 10.4733 21.3775C10.6441 21.692 10.8569 21.9863 11.1119 22.2583C11.4744 22.6568 11.8569 23.0127 12.4955 23.4951C13.4334 23.9764 14.2627 24.6054 15.3481 24.8986C15.6463 24.9836 15.9866 25.0665 16.3281 25.1292C16.6895 25.1929 17.0299 25.2142 17.4134 25.2142C17.7749 25.2142 18.1584 25.1717 18.6263 25.0867C19.1088 25.0294 19.5857 24.9317 20.0521 24.7945C21.0938 24.4783 22.0534 23.9341 22.8624 23.2008C23.2671 22.8246 23.8424 22.3423 24.2882 21.7133C24.6507 21.0014 24.6928 20.6444 24.8635 20.3299C25.0332 20.0154 25.2461 19.6594 25.3957 19.1771C25.5177 18.6048 25.5889 18.0227 25.6086 17.4378C25.5875 16.8513 25.5453 16.2849 25.4168 15.7399L25.4157 15.7388ZM20.3492 11.8416C21.0732 12.2602 21.1796 12.3229 20.796 12.0509C21.3503 12.1763 21.6907 12.4908 22.031 12.8053C22.8614 13.7488 23.5421 14.8591 23.8825 16.1373C24.0743 17.5833 23.9246 19.0294 23.3082 20.3086C22.2017 22.2573 20.4346 23.5567 18.327 23.9126C18.0931 23.9126 17.8381 23.9126 17.6031 23.9339C18.1995 23.8287 18.5831 23.4515 19.6685 23.0531C20.8382 22.6344 22.1585 20.6858 22.7982 19.5532C24.6707 16.4719 22.4567 13.6223 20.3492 11.8416ZM16.3481 23.9541C13.113 23.6194 10.6219 20.9578 10.2816 17.8766C10.5787 19.5957 11.6009 20.9153 12.9845 22.0894C13.4745 22.4039 14.1973 22.8438 14.6873 23.1583C15.5177 23.4728 16.0067 23.8085 16.816 23.9551H16.3481V23.9541ZM25.0532 18.3589C24.9057 19.0092 24.7561 19.6371 24.6064 20.2874C24.2871 21.0843 23.8193 21.9013 23.1807 22.5505C22.5421 23.2008 21.7328 23.7033 20.9246 24.1857C20.286 24.5204 19.4767 24.6883 18.817 24.8551C18.4335 24.8976 17.9867 24.7297 17.6031 24.7095C22.3292 24.5831 25.5643 20.162 24.8625 15.7813C24.5211 14.5031 23.8403 13.3918 23.01 12.2814C22.6696 11.7991 22.0089 11.5058 21.52 11.0234C18.561 9.15876 14.6452 9.53595 12.4102 11.9882C12.0968 12.3104 11.8049 12.6533 11.5366 13.0146C12.7295 11.254 14.6452 10.0183 16.9435 9.66132C17.7527 9.64007 18.5831 9.78776 19.3914 9.93438C22.9678 11.0234 25.6286 14.5031 25.0532 18.36V18.3589Z" fill="#D7DF23"/>
</g>
<defs>
<clipPath id="clip0_1_1148">
<rect width="98" height="34" fill="white"/>
</clipPath>
</defs>
</svg>
